<svg xmlns="http://www.w3.org/2000/svg" fill="none" overflow="visible" preserveAspectRatio="none" style="display:block" viewBox="0 0 187.962 40.017"><mask id="a" width="189" height="41" x="-.739" y="-.739" fill="#000" maskUnits="userSpaceOnUse"><path fill="#fff" d="M-.739-.739h189v41h-189z"/><path d="M.26 38.96V1.852h8.522q4.93.054 7.845 2.65 2.916 2.545 2.969 6.946 0 2.703-1.166 4.718c-.742 1.308-1.132 1.55-2.51 2.186v.106c6 0 8.178 2.444 9.203 3.963q1.537 2.332 1.59 5.567 0 5.407-3.34 8.164-3.285 2.81-9.7 2.81zm4.348-21.364h3.379q7.21 0 7.21-5.937 0-2.81-1.803-4.241-1.803-1.432-5.407-1.432h-3.38zm0 17.23h8.482q4.824 0 7.05-1.644t2.174-5.195q.052-3.446-2.12-4.983-2.174-1.538-6.998-1.538H4.608zM31.6 38.96V10.865h3.923v2.332h.106q.795-1.325 2.28-2.067 1.536-.743 3.551-.743a9.4 9.4 0 0 1 2.81.425l-.902 4.294a8 8 0 0 0-1.378-.372 9 9 0 0 0-1.378-.106q-2.439-.053-3.658 1.75-1.22 1.802-1.22 5.725v16.859zm25.403.796q-4.294-.053-6.733-2.174-2.438-2.067-2.491-5.778-.054-3.552 2.28-5.62 2.331-2.067 7.58-3.286 3.975-.955 5.62-2.015 1.59-1.113 1.536-2.757-.052-1.96-1.59-3.128-1.537-1.166-4.188-1.166-2.81 0-4.612 1.59-1.856 1.59-2.438 4.454l-4.188-.795q.795-4.19 3.763-6.574 3.022-2.385 7.475-2.439 4.77.053 7.422 2.439 2.65 2.438 2.703 6.68v17.295l-2.873-1.174-.997.684h-.106q-1.218 1.75-3.34 2.756-2.119 1.008-4.823 1.008m.318-3.87q3.446-.053 5.513-1.803 2.12-1.802 2.173-4.612v-6.308h-.106q-.423 1.007-1.855 1.802-1.484.795-4.294 1.484-3.657.902-5.248 2.12-1.644 1.167-1.59 2.97 0 2.12 1.378 3.233 1.379 1.114 4.029 1.114m19.846 3.074V10.865h4.029v2.597h.106q1.325-1.538 3.445-2.438a10.7 10.7 0 0 1 4.453-.955q4.93.054 7.793 2.916 2.81 2.863 2.863 7.793v18.184H95.72V21.307q-.053-3.446-1.856-5.407-1.855-1.909-5.142-1.962-3.393.054-5.354 2.068-2.014 1.961-2.067 5.301v17.654zm39.396.796q-5.62-.107-9.065-4.135-3.445-4.03-3.552-10.709.106-6.68 3.552-10.709t9.065-4.135q2.65 0 4.771 1.06 2.12 1.008 3.499 2.704h.106V.261h4.134v38.7h-3.975v-2.81h-.106q-1.432 1.696-3.605 2.65-2.227.955-4.824.955m.265-3.87q3.445-.106 5.725-2.386 2.28-2.332 2.386-5.884v-5.46q-.107-3.5-2.439-5.832-2.333-2.28-5.937-2.386-3.818.054-6.15 3.022-2.279 2.916-2.332 7.952.052 5.037 2.385 7.952 2.333 2.969 6.362 3.022m30.768-28.733q-2.014-.106-3.34-1.008-1.377-.9-2.756-1.007-.795 0-1.272.424-.424.425-.637 1.326H137.1q.159-2.28 1.378-3.605 1.22-1.326 3.234-1.326 2.014.107 3.393 1.008 1.325.9 2.703 1.007.795 0 1.273-.424.423-.477.636-1.326h2.491q-.159 2.28-1.378 3.605-1.22 1.326-3.234 1.326m-4.93 32.603q-4.294-.053-6.732-2.174-2.44-2.067-2.492-5.778-.053-3.552 2.28-5.62t7.58-3.286q3.977-.955 5.619-2.015 1.591-1.113 1.538-2.757-.054-1.96-1.591-3.128-1.536-1.166-4.187-1.166-2.81 0-4.612 1.59-1.856 1.59-2.439 4.454l-4.188-.795q.795-4.19 3.764-6.574 3.021-2.385 7.475-2.439 4.77.053 7.421 2.439 2.65 2.438 2.704 6.68v17.947l-2.704-.522-1.166-.62h-.106q-1.22 1.75-3.34 2.756-2.12 1.008-4.824 1.008m.318-3.87q3.446-.053 5.513-1.803 2.121-1.802 2.174-4.612v-6.308h-.106q-.424 1.007-1.856 1.802-1.483.795-4.293 1.484-3.658.902-5.249 2.12-1.643 1.167-1.59 2.97 0 2.12 1.378 3.233 1.379 1.114 4.029 1.114m31.464 3.87q-6.043-.107-9.595-4.082-3.499-4.029-3.605-10.762.106-6.733 3.605-10.762 3.552-3.975 9.595-4.082 6.043.107 9.595 4.082 3.552 4.03 3.658 10.762-.106 6.733-3.658 10.762-3.552 3.975-9.595 4.082m0-3.87q4.24-.053 6.626-2.969 2.44-2.916 2.492-8.005-.053-5.09-2.492-8.005-2.385-2.916-6.626-2.969-4.24.053-6.626 2.969t-2.439 8.005q.053 5.09 2.439 8.005 2.385 2.916 6.626 2.969"/><path d="M70.711 34.395c-1.356.104-1.608-1.087-1.565-1.696-.399-5.087-3.87 2.261-3.783 3.392 1.252 2.504 2.957 2.87 3.783 2.87h4.044v-4.957zm85.56 0c-1.356.104-1.609-1.087-1.565-1.696-3.235 0-3.87 2.261-3.783 3.392 1.252 2.504 2.957 2.87 3.783 2.87h4.044v-4.957z"/></mask><path fill="#000" d="M.26 38.96V1.852h8.522q4.93.054 7.845 2.65 2.916 2.545 2.969 6.946 0 2.703-1.166 4.718c-.742 1.308-1.132 1.55-2.51 2.186v.106c6 0 8.178 2.444 9.203 3.963q1.537 2.332 1.59 5.567 0 5.407-3.34 8.164-3.285 2.81-9.7 2.81zm4.348-21.364h3.379q7.21 0 7.21-5.937 0-2.81-1.803-4.241-1.803-1.432-5.407-1.432h-3.38zm0 17.23h8.482q4.824 0 7.05-1.644t2.174-5.195q.052-3.446-2.12-4.983-2.174-1.538-6.998-1.538H4.608zM31.6 38.96V10.865h3.923v2.332h.106q.795-1.325 2.28-2.067 1.536-.743 3.551-.743a9.4 9.4 0 0 1 2.81.425l-.902 4.294a8 8 0 0 0-1.378-.372 9 9 0 0 0-1.378-.106q-2.439-.053-3.658 1.75-1.22 1.802-1.22 5.725v16.859zm25.403.796q-4.294-.053-6.733-2.174-2.438-2.067-2.491-5.778-.054-3.552 2.28-5.62 2.331-2.067 7.58-3.286 3.975-.955 5.62-2.015 1.59-1.113 1.536-2.757-.052-1.96-1.59-3.128-1.537-1.166-4.188-1.166-2.81 0-4.612 1.59-1.856 1.59-2.438 4.454l-4.188-.795q.795-4.19 3.763-6.574 3.022-2.385 7.475-2.439 4.77.053 7.422 2.439 2.65 2.438 2.703 6.68v17.295l-2.873-1.174-.997.684h-.106q-1.218 1.75-3.34 2.756-2.119 1.008-4.823 1.008m.318-3.87q3.446-.053 5.513-1.803 2.12-1.802 2.173-4.612v-6.308h-.106q-.423 1.007-1.855 1.802-1.484.795-4.294 1.484-3.657.902-5.248 2.12-1.644 1.167-1.59 2.97 0 2.12 1.378 3.233 1.379 1.114 4.029 1.114m19.846 3.074V10.865h4.029v2.597h.106q1.325-1.538 3.445-2.438a10.7 10.7 0 0 1 4.453-.955q4.93.054 7.793 2.916 2.81 2.863 2.863 7.793v18.184H95.72V21.307q-.053-3.446-1.856-5.407-1.855-1.909-5.142-1.962-3.393.054-5.354 2.068-2.014 1.961-2.067 5.301v17.654zm39.396.796q-5.62-.107-9.065-4.135-3.445-4.03-3.552-10.709.106-6.68 3.552-10.709t9.065-4.135q2.65 0 4.771 1.06 2.12 1.008 3.499 2.704h.106V.261h4.134v38.7h-3.975v-2.81h-.106q-1.432 1.696-3.605 2.65-2.227.955-4.824.955m.265-3.87q3.445-.106 5.725-2.386 2.28-2.332 2.386-5.884v-5.46q-.107-3.5-2.439-5.832-2.333-2.28-5.937-2.386-3.818.054-6.15 3.022-2.279 2.916-2.332 7.952.052 5.037 2.385 7.952 2.333 2.969 6.362 3.022m30.768-28.733q-2.014-.106-3.34-1.008-1.377-.9-2.756-1.007-.795 0-1.272.424-.424.425-.637 1.326H137.1q.159-2.28 1.378-3.605 1.22-1.326 3.234-1.326 2.014.107 3.393 1.008 1.325.9 2.703 1.007.795 0 1.273-.424.423-.477.636-1.326h2.491q-.159 2.28-1.378 3.605-1.22 1.326-3.234 1.326m-4.93 32.603q-4.294-.053-6.732-2.174-2.44-2.067-2.492-5.778-.053-3.552 2.28-5.62t7.58-3.286q3.977-.955 5.619-2.015 1.591-1.113 1.538-2.757-.054-1.96-1.591-3.128-1.536-1.166-4.187-1.166-2.81 0-4.612 1.59-1.856 1.59-2.439 4.454l-4.188-.795q.795-4.19 3.764-6.574 3.021-2.385 7.475-2.439 4.77.053 7.421 2.439 2.65 2.438 2.704 6.68v17.947l-2.704-.522-1.166-.62h-.106q-1.22 1.75-3.34 2.756-2.12 1.008-4.824 1.008m.318-3.87q3.446-.053 5.513-1.803 2.121-1.802 2.174-4.612v-6.308h-.106q-.424 1.007-1.856 1.802-1.483.795-4.293 1.484-3.658.902-5.249 2.12-1.643 1.167-1.59 2.97 0 2.12 1.378 3.233 1.379 1.114 4.029 1.114m31.464 3.87q-6.043-.107-9.595-4.082-3.499-4.029-3.605-10.762.106-6.733 3.605-10.762 3.552-3.975 9.595-4.082 6.043.107 9.595 4.082 3.552 4.03 3.658 10.762-.106 6.733-3.658 10.762-3.552 3.975-9.595 4.082m0-3.87q4.24-.053 6.626-2.969 2.44-2.916 2.492-8.005-.053-5.09-2.492-8.005-2.385-2.916-6.626-2.969-4.24.053-6.626 2.969t-2.439 8.005q.053 5.09 2.439 8.005 2.385 2.916 6.626 2.969"/><path fill="#000" d="M70.711 34.395c-1.356.104-1.608-1.087-1.565-1.696-.399-5.087-3.87 2.261-3.783 3.392 1.252 2.504 2.957 2.87 3.783 2.87h4.044v-4.957zm85.56 0c-1.356.104-1.609-1.087-1.565-1.696-3.235 0-3.87 2.261-3.783 3.392 1.252 2.504 2.957 2.87 3.783 2.87h4.044v-4.957z"/><path stroke="#000" stroke-width=".522" d="M.26 38.96V1.852h8.522q4.93.054 7.845 2.65 2.916 2.545 2.969 6.946 0 2.703-1.166 4.718c-.742 1.308-1.132 1.55-2.51 2.186v.106c6 0 8.178 2.444 9.203 3.963q1.537 2.332 1.59 5.567 0 5.407-3.34 8.164-3.285 2.81-9.7 2.81zm4.348-21.364h3.379q7.21 0 7.21-5.937 0-2.81-1.803-4.241-1.803-1.432-5.407-1.432h-3.38zm0 17.23h8.482q4.824 0 7.05-1.644t2.174-5.195q.052-3.446-2.12-4.983-2.174-1.538-6.998-1.538H4.608z" mask="url(#a)"/><path stroke="#000" stroke-width=".522" d="M31.6 38.96V10.865h3.923v2.332h.106q.795-1.325 2.28-2.067 1.536-.743 3.551-.743a9.4 9.4 0 0 1 2.81.425l-.902 4.294a8 8 0 0 0-1.378-.372 9 9 0 0 0-1.378-.106q-2.439-.053-3.658 1.75-1.22 1.802-1.22 5.725v16.859z" mask="url(#a)"/><path stroke="#000" stroke-width=".522" d="M57.003 39.756q-4.294-.053-6.733-2.174-2.438-2.067-2.491-5.778-.054-3.552 2.28-5.62 2.331-2.067 7.58-3.286 3.975-.955 5.62-2.015 1.59-1.113 1.536-2.757-.052-1.96-1.59-3.128-1.537-1.166-4.188-1.166-2.81 0-4.612 1.59-1.856 1.59-2.438 4.454l-4.188-.795q.795-4.19 3.763-6.574 3.022-2.385 7.475-2.439 4.77.053 7.422 2.439 2.65 2.438 2.703 6.68v17.295l-2.873-1.174-.997.684h-.106q-1.218 1.75-3.34 2.756-2.119 1.008-4.823 1.008Zm.318-3.87q3.446-.053 5.513-1.803 2.12-1.802 2.173-4.612v-6.308h-.106q-.423 1.007-1.855 1.802-1.484.795-4.294 1.484-3.657.902-5.248 2.12-1.644 1.167-1.59 2.97 0 2.12 1.378 3.233 1.379 1.114 4.029 1.114Z" mask="url(#a)"/><path stroke="#000" stroke-width=".522" d="M77.167 38.96V10.865h4.029v2.597h.106q1.325-1.538 3.445-2.438a10.7 10.7 0 0 1 4.453-.955q4.93.054 7.793 2.916 2.81 2.863 2.863 7.793v18.184H95.72V21.307q-.053-3.446-1.856-5.407-1.855-1.909-5.142-1.962-3.393.054-5.354 2.068-2.014 1.961-2.067 5.301v17.654z" mask="url(#a)"/><path stroke="#000" stroke-width=".522" d="M116.563 39.756q-5.62-.107-9.065-4.135-3.445-4.03-3.552-10.709.106-6.68 3.552-10.709t9.065-4.135q2.65 0 4.771 1.06 2.12 1.008 3.499 2.704h.106V.261h4.134v38.7h-3.975v-2.81h-.106q-1.432 1.696-3.605 2.65-2.227.955-4.824.955Zm.265-3.87q3.445-.106 5.725-2.386 2.28-2.332 2.386-5.884v-5.46q-.107-3.5-2.439-5.832-2.333-2.28-5.937-2.386-3.818.054-6.15 3.022-2.279 2.916-2.332 7.952.052 5.037 2.385 7.952 2.333 2.969 6.362 3.022Z" mask="url(#a)"/><path stroke="#000" stroke-width=".522" d="M147.596 7.153q-2.014-.106-3.34-1.008-1.377-.9-2.756-1.007-.795 0-1.272.424-.424.425-.637 1.326H137.1q.159-2.28 1.378-3.605 1.22-1.326 3.234-1.326 2.014.107 3.393 1.008 1.325.9 2.703 1.007.795 0 1.273-.424.423-.477.636-1.326h2.491q-.159 2.28-1.378 3.605-1.22 1.326-3.234 1.326Zm-4.93 32.603q-4.294-.053-6.732-2.174-2.44-2.067-2.492-5.778-.053-3.552 2.28-5.62t7.58-3.286q3.977-.955 5.619-2.015 1.591-1.113 1.538-2.757-.054-1.96-1.591-3.128-1.536-1.166-4.187-1.166-2.81 0-4.612 1.59-1.856 1.59-2.439 4.454l-4.188-.795q.795-4.19 3.764-6.574 3.021-2.385 7.475-2.439 4.77.053 7.421 2.439 2.65 2.438 2.704 6.68v17.947l-2.704-.522-1.166-.62h-.106q-1.22 1.75-3.34 2.756-2.12 1.008-4.824 1.008Zm.318-3.87q3.446-.053 5.513-1.803 2.121-1.802 2.174-4.612v-6.308h-.106q-.424 1.007-1.856 1.802-1.483.795-4.293 1.484-3.658.902-5.249 2.12-1.643 1.167-1.59 2.97 0 2.12 1.378 3.233 1.379 1.114 4.029 1.114Z" mask="url(#a)"/><path stroke="#000" stroke-width=".522" d="M174.448 39.756q-6.043-.107-9.595-4.082-3.499-4.029-3.605-10.762.106-6.733 3.605-10.762 3.552-3.975 9.595-4.082 6.043.107 9.595 4.082 3.552 4.03 3.658 10.762-.106 6.733-3.658 10.762-3.552 3.975-9.595 4.082Zm0-3.87q4.24-.053 6.626-2.969 2.44-2.916 2.492-8.005-.053-5.09-2.492-8.005-2.385-2.916-6.626-2.969-4.24.053-6.626 2.969t-2.439 8.005q.053 5.09 2.439 8.005 2.385 2.916 6.626 2.969Z" mask="url(#a)"/><path stroke="#000" stroke-width=".522" d="M70.711 34.395c-1.356.104-1.608-1.087-1.565-1.696-.399-5.087-3.87 2.261-3.783 3.392 1.252 2.504 2.957 2.87 3.783 2.87h4.044v-4.957z" mask="url(#a)"/><path stroke="#000" stroke-width=".522" d="M156.271 34.395c-1.356.104-1.609-1.087-1.565-1.696-3.235 0-3.87 2.261-3.783 3.392 1.252 2.504 2.957 2.87 3.783 2.87h4.044v-4.957z" mask="url(#a)"/></svg>